<svg xmlns="http://www.w3.org/2000/svg" width="32" height="32" xmlns:v="https://vecta.io/nano"><rect x="1" y="4" width="30" height="24" rx="4" fill="#fff"/><path d="M1.638 5.846h28.724C29.651 4.738 28.415 4 27 4H5a3.99 3.99 0 0 0-3.362 1.846zm.392 1.846C2.022 7.795 2 7.894 2 8v1.539h29V8c0-.105-.022-.204-.03-.308H2.03zM2 11.385h29v1.846H2zm0 3.692h29v1.846H2zm-1 3.692h30v1.846H1zM1 24c0 .105.023.204.031.308h29.938c.008-.103.031-.202.031-.308v-1.539H1V24zm29.362 2.154H1.638C2.349 27.262 3.585 28 5 28h22a3.99 3.99 0 0 0 3.362-1.846z" fill="#a62842"/><path d="M5,4h11v12.923H1V8c0-2.208,1.792-4,4-4Z" fill="#102d5e"/><path d="M27 4H5a4 4 0 0 0-4 4v16a4 4 0 0 0 4 4h22a4 4 0 0 0 4-4V8a4 4 0 0 0-4-4zm3 20c0 1.654-1.346 3-3 3H5c-1.654 0-3-1.346-3-3V8c0-1.654 1.346-3 3-3h22c1.654 0 3 1.346 3 3v16z" opacity=".15"/><g fill="#fff"><path d="M27 5H5a3 3 0 0 0-3 3v1a3 3 0 0 1 3-3h22a3 3 0 0 1 3 3V8a3 3 0 0 0-3-3z" opacity=".2"/><use href="#B"/><use href="#B" x="2.979"/><use href="#C"/><use href="#D"/><use href="#E"/><use href="#F"/><use href="#B" x="1.465" y="5.461"/><use href="#C" x="-1.514" y="5.461"/><use href="#G"/><use href="#G" x="1.514" y="-5.461"/><use href="#H"/><use href="#H" x="2.979"/><path d="M10.56 11.104l.591-.43h-.731l-.226-.695-.226.695h-.731l.591.43-.225.695.591-.43.591.43-.225-.695zm2.979 0l.591-.43h-.731l-.226-.695-.226.695h-.731l.592.43-.226.695.591-.43.592.43-.226-.695z"/><use href="#D" x="-1.465" y="5.461"/><use href="#D" x="1.514" y="5.461"/><use href="#E" x="1.514" y="5.461"/><use href="#F" x="1.514" y="5.461"/></g><defs ><path id="B" d="M4.601 7.463l.592-.43h-.731l-.226-.695-.226.695h-.731l.591.43-.226.695.592-.429.591.429-.226-.695z"/><path id="C" d="M10.56 7.463l.591-.43h-.731l-.226-.695-.226.695h-.731l.591.43-.225.695.591-.429.591.429-.225-.695z"/><path id="D" d="M6.066 9.283l.592-.429h-.731l-.226-.696-.226.696h-.731l.591.429-.226.696.592-.43.591.43-.226-.696z"/><path id="E" d="M9.046 9.283l.591-.429h-.731l-.226-.696-.226.696h-.731l.591.429-.225.696.591-.43.591.43-.225-.696z"/><path id="F" d="M12.025 9.283l.591-.429h-.731l-.226-.696-.226.696h-.731l.592.429-.226.696.591-.43.592.43-.226-.696z"/><path id="G" d="M12.025 12.924l.591-.43h-.731l-.226-.695-.226.695h-.731l.592.43-.226.695.591-.429.592.429-.226-.695z"/><path id="H" d="M4.601 11.104l.592-.43h-.731l-.226-.695-.226.695h-.731l.591.43-.226.695.592-.43.591.43-.226-.695z"/></defs></svg>